HIERARCHY
ROOT hip
{
  OFFSET 0 0 0
  CHANNELS 6 Xposition Yposition Zposition Zrotation Yrotation Xrotation
  JOINT abdomen
  {
    OFFSET 0 20.6881 -0.73152
    CHANNELS 3 Zrotation Xrotation Yrotation
    JOINT chest
    {
      OFFSET 0 11.7043 -0.48768
      CHANNELS 3 Zrotation Xrotation Yrotation
      JOINT neck
      {
        OFFSET 0 22.1894 -2.19456
        CHANNELS 3 Zrotation Xrotation Yrotation
        JOINT head
        {
          OFFSET -0.24384 7.07133 1.2192
          CHANNELS 3 Zrotation Xrotation Yrotation
          JOINT leftEye
          {
            OFFSET 4.14528 8.04674 8.04672
            CHANNELS 3 Zrotation Xrotation Yrotation
            End Site
            {
              OFFSET 1 0 0
            }
          }
          JOINT rightEye
          {
            OFFSET -3.6576 8.04674 8.04672
            CHANNELS 3 Zrotation Xrotation Yrotation
            End Site
            {
              OFFSET 1 0 0
            }
          }
        }
      }
      JOINT rCollar
      {
        OFFSET -2.68224 19.2634 -4.8768
        CHANNELS 3 Zrotation Xrotation Yrotation
        JOINT rShldr
        {
          OFFSET -8.77824 -1.95073 1.46304
          CHANNELS 3 Zrotation Xrotation Yrotation
          JOINT rForeArm
          {
            OFFSET -28.1742 -1.7115 0.48768
            CHANNELS 3 Zrotation Xrotation Yrotation
            JOINT rHand
            {
              OFFSET -22.5879 0.773209 7.07136
              CHANNELS 3 Zrotation Xrotation Yrotation
              JOINT rThumb1
              {
                OFFSET -1.2192 -0.487915 3.41376
                CHANNELS 3 Zrotation Xrotation Yrotation
                JOINT rThumb2
                {
                  OFFSET -3.37035 -0.52449 3.41376
                  CHANNELS 3 Zrotation Xrotation Yrotation
                  End Site
                  {
                    OFFSET -1.78271 -1.18214 1.43049
                  }
                }
              }
              JOINT rIndex1
              {
                OFFSET -7.75947 0.938293 5.60832
                CHANNELS 3 Zrotation Xrotation Yrotation
                JOINT rIndex2
                {
                  OFFSET -2.54057 -0.884171 1.56538
                  CHANNELS 3 Zrotation Xrotation Yrotation
                  End Site
                  {
                    OFFSET -1.62519 -0.234802 1.16502
                  }
                }
              }
              JOINT rMid1
              {
                OFFSET -8.24714 1.18213 3.41376
                CHANNELS 3 Zrotation Xrotation Yrotation
                JOINT rMid2
                {
                  OFFSET -3.10165 -0.590103 1.0647
                  CHANNELS 3 Zrotation Xrotation Yrotation
                  End Site
                  {
                    OFFSET -2.48547 -0.328903 0.83742
                  }
                }
              }
              JOINT rRing1
              {
                OFFSET -8.82822 0.546677 1.51678
                CHANNELS 3 Zrotation Xrotation Yrotation
                JOINT rRing2
                {
                  OFFSET -2.60934 -0.819778 -0.0198488
                  CHANNELS 3 Zrotation Xrotation Yrotation
                  End Site
                  {
                    OFFSET -2.33842 -0.294052 0.168128
                  }
                }
              }
              JOINT rPinky1
              {
                OFFSET -8.27202 -0.0477905 -0.4584
                CHANNELS 3 Zrotation Xrotation Yrotation
                JOINT rPinky2
                {
                  OFFSET -1.82734 -0.647385 -0.700984
                  CHANNELS 3 Zrotation Xrotation Yrotation
                  End Site
                  {
                    OFFSET -1.69225 -0.51767 -0.607171
                  }
                }
              }
            }
          }
        }
      }
      JOINT lCollar
      {
        OFFSET 2.68224 19.2634 -4.8768
        CHANNELS 3 Zrotation Xrotation Yrotation
        JOINT lShldr
        {
          OFFSET 8.77824 -1.95073 1.46304
          CHANNELS 3 Zrotation Xrotation Yrotation
          JOINT lForeArm
          {
            OFFSET 28.1742 -1.7115 0.48768
            CHANNELS 3 Zrotation Xrotation Yrotation
            JOINT lHand
            {
              OFFSET 22.5879 0.773209 7.07136
              CHANNELS 3 Zrotation Xrotation Yrotation
              JOINT lThumb1
              {
                OFFSET 1.2192 -0.487915 3.41376
                CHANNELS 3 Zrotation Xrotation Yrotation
                JOINT lThumb2
                {
                  OFFSET 3.37035 -0.52449 3.41376
                  CHANNELS 3 Zrotation Xrotation Yrotation
                  End Site
                  {
                    OFFSET 1.78271 -1.18214 1.43049
                  }
                }
              }
              JOINT lIndex1
              {
                OFFSET 7.75947 0.938293 5.60832
                CHANNELS 3 Zrotation Xrotation Yrotation
                JOINT lIndex2
                {
                  OFFSET 2.54057 -0.884171 1.56538
                  CHANNELS 3 Zrotation Xrotation Yrotation
                  End Site
                  {
                    OFFSET 1.62519 -0.234802 1.16502
                  }
                }
              }
              JOINT lMid1
              {
                OFFSET 8.24714 1.18213 3.41376
                CHANNELS 3 Zrotation Xrotation Yrotation
                JOINT lMid2
                {
                  OFFSET 3.10165 -0.590103 1.0647
                  CHANNELS 3 Zrotation Xrotation Yrotation
                  End Site
                  {
                    OFFSET 2.48547 -0.328903 0.83742
                  }
                }
              }
              JOINT lRing1
              {
                OFFSET 8.82822 0.546677 1.51678
                CHANNELS 3 Zrotation Xrotation Yrotation
                JOINT lRing2
                {
                  OFFSET 2.60934 -0.819778 -0.0198488
                  CHANNELS 3 Zrotation Xrotation Yrotation
                  End Site
                  {
                    OFFSET 2.33842 -0.294052 0.168128
                  }
                }
              }
              JOINT lPinky1
              {
                OFFSET 8.27202 -0.0477905 -0.4584
                CHANNELS 3 Zrotation Xrotation Yrotation
                JOINT lPinky2
                {
                  OFFSET 1.82734 -0.647385 -0.700984
                  CHANNELS 3 Zrotation Xrotation Yrotation
                  End Site
                  {
                    OFFSET 1.69225 -0.51767 -0.607171
                  }
                }
              }
            }
          }
        }
      }
    }
  }
  JOINT rButtock
  {
    OFFSET -8.77824 4.35084 1.2192
    CHANNELS 3 Zrotation Xrotation Yrotation
    JOINT rThigh
    {
      OFFSET 0 -1.70687 -2.19456
      CHANNELS 3 Zrotation Xrotation Yrotation
      JOINT rShin
      {
        OFFSET 0 -36.8199 0.73152
        CHANNELS 3 Zrotation Xrotation Yrotation
        JOINT rFoot
        {
          OFFSET 0.73152 -45.1104 -5.12064
          CHANNELS 3 Zrotation Xrotation Yrotation
          End Site
          {
            OFFSET -1.1221 -3.69964 12.103
          }
        }
      }
    }
  }
  JOINT lButtock
  {
    OFFSET 8.77824 4.35084 1.2192
    CHANNELS 3 Zrotation Xrotation Yrotation
    JOINT lThigh
    {
      OFFSET 0 -1.70687 -2.19456
      CHANNELS 3 Zrotation Xrotation Yrotation
      JOINT lShin
      {
        OFFSET 0 -36.8199 0.73152
        CHANNELS 3 Zrotation Xrotation Yrotation
        JOINT lFoot
        {
          OFFSET -0.73152 -45.1104 -5.12064
          CHANNELS 3 Zrotation Xrotation Yrotation
          End Site
          {
            OFFSET 1.1221 -3.69964 12.103
          }
        }
      }
    }
  }
}
MOTION
Frames:	5
Frame Time:	0.03333
-29.408299999999997 67.9389 -29.039199999999997 172.561603 28.473547 -178.945602 -3.785786 -1.348848 -0.247174 -1.920944 -10.379813 19.430054 -10.475001 5.548994 -78.312927 3.176331 14.543764 82.534132 0.001249 -0.0 -0.003459 0.001464 0.0 0.002241 -143.620269 38.233215 148.080196 -40.411402 18.338114 7.667599 15.695127 36.24866 -145.345139 -178.148167 1.081621 143.034483 -171.637232 -9.319046 89.949777 44.28214 -67.270591 34.749164 -1.396911 2.231921 0.806357 -156.211599 -5.639273 109.882883 6.907434 -21.624197 -2.811055 -170.174833 -25.701513 144.291831 -145.122811 1.975245 -179.749212 -150.497254 -35.140421 -173.02496 -149.468814 26.86274 -145.485029 73.157788 84.177458 -35.304449 0.272998 1.606873 -0.360488 37.296679 45.266674 -25.842637 -138.925504 0.620148 -163.343999 147.246807 63.389445 -124.021428 -90.437189 -50.940273 -38.665098 59.418417 30.82918 -19.33386 -10.747186 -19.047927 4.725639 112.250208 38.327772 -89.815538 39.288201 53.36666 -32.876938 161.067823 1.290066 -142.507747 145.118788 0.267827 179.212309 -12.07128 36.619729 4.849732 55.228272 -50.540414 53.897333 167.1759 71.167297 146.602271 -0.003679 0.000226 -0.001839 -21.565246 -45.341814 180.0 -61.907987 -57.798603 22.482416 175.444546 -62.727791 -90.337581 -0.000495 0.000226 0.000637 9.57161 -27.217194 4.580366 -36.299636 57.133754 -178.253476 -44.133425 -5.150547 -138.524784
-28.3358 68.1356 -29.2686 171.950401 27.615663 -178.992324 -3.542364 -3.011648 -71.035703 7.014352 -7.429103 90.433002 9.549872 4.802876 98.911838 0.839771 2.46859 -94.978636 0.000652 -0.0 -0.0038 -0.004889 -0.0 0.002066 0.133082 -0.807189 -0.178305 60.170346 -17.629118 35.300395 7.790032 65.306665 99.238121 -9.950465 9.296338 -1.314239 -12.304957 11.515406 3.093732 41.392765 -51.066142 -9.318741 -0.132049 0.21335 0.074111 10.721143 1.279642 -0.365382 23.902711 -61.334026 1.399067 -176.727396 -42.213388 142.760861 -72.964972 -72.142555 -89.990392 -150.971955 -0.736876 176.452972 1.13438 3.040603 1.043885 -13.878548 -31.167903 -14.914527 147.671609 29.084859 -152.475705 -34.152943 37.018884 14.981942 -105.950444 55.602947 93.013821 52.741061 70.229657 -35.422174 -170.728754 -25.696148 -87.147381 165.27159 -1.650202 -95.793122 155.377223 -24.639798 -122.179175 46.974179 55.254992 -33.072187 6.646392 17.108758 -4.326511 155.425375 16.767267 -139.608281 145.119294 0.31026 179.225404 153.329237 -19.04915 176.445328 143.938271 8.265177 140.719771 -16.27574 41.602195 -5.893597 0.0 -0.000562 0.000195 -16.464756 -45.57969 -180.0 -42.341576 -48.253136 141.441195 -25.94114 -10.092378 -20.270598 179.998193 75.749109 -0.0 -167.00894 48.660205 -9.655992 -31.524253 56.130403 160.300345 160.942617 59.156268 101.94062
-26.923099999999998 68.3728 -29.4149 171.668907 25.76357 -178.973121 -7.641448 -1.496924 -0.520997 -3.298984 -10.671952 17.548516 9.144736 4.412208 96.456775 0.746799 -0.416361 -91.87942 -0.001984 0.0 -0.001205 0.004104 -0.0 -0.001605 -85.537791 68.183258 88.688901 -29.811104 4.967689 35.77238 -114.639144 -1.28055 -16.309107 72.832188 -78.273394 55.413833 -121.365134 30.330261 71.958242 -0.825474 -28.142164 25.073564 5.921274 -10.174751 -2.967166 -176.753215 -34.679124 106.519012 -36.036077 51.723433 29.831455 3.30071 0.311897 0.111857 -0.002333 -0.060675 -0.020176 9.84889 6.278371 0.752601 10.593682 34.894278 9.104788 -160.432874 55.491603 -149.694952 142.973539 39.431144 -147.3889 112.993981 -62.827637 134.620196 127.503112 71.027444 -74.26992 -157.773706 -43.427615 -136.304817 107.933207 35.149202 -63.317874 135.566271 -17.457692 -74.032477 138.492848 4.896634 -114.865616 -45.032947 -55.054854 -1.91113 156.686269 5.002455 -141.076143 151.580529 24.807521 -136.787705 72.756338 -72.143997 89.771866 150.96277 -1.638707 -176.562735 -3.198262 9.007963 -2.916579 8.86071 -23.926703 10.078577 0.001354 -0.001206 0.000677 -13.449025 -44.474292 161.153255 -29.336378 -60.767871 -118.944786 -90.095081 -54.329804 -163.055276 179.995532 75.748025 0.003057 -166.089546 49.207125 -10.438843 -41.885487 46.987916 -74.407298 -84.97257 73.941399 -178.634545
-25.301800000000004 68.6724 -29.4756 172.416288 23.292514 -178.860891 -8.304429 -0.810761 -0.466766 -4.20179 -11.058976 15.578795 8.673254 3.443714 91.183796 2.054021 -2.75773 -86.260923 0.00167 -0.0 -0.002038 0.001285 -0.0 -0.001865 -155.515039 -3.589616 161.854695 -30.497672 -32.001339 -21.898811 172.132351 -66.111937 -87.513187 -10.575162 1.857709 -2.329984 -12.30469 11.51545 3.094099 61.57672 -67.098277 -1.664295 -152.316141 -18.947608 121.430455 -162.953698 -19.432932 119.567782 -42.120152 54.612807 35.543193 -25.344761 49.330722 21.023703 -145.120864 1.974399 -179.74895 9.270698 71.201603 1.88703 -126.79754 -26.620742 -124.514283 3.919597 2.230428 -1.004198 142.586109 40.120737 -146.976816 -28.585632 37.140836 18.302307 -8.282537 -24.484226 58.384175 -168.392625 -21.047321 -143.278334 12.304915 11.515212 -3.094823 14.400104 12.555437 -18.781382 13.871555 18.815074 -9.290237 -95.948685 -61.646874 -44.843288 160.938019 -7.488577 -143.365954 167.580927 -17.772731 -143.837537 145.116753 0.185197 179.187318 149.414791 -38.763143 171.996572 -6.229017 18.789296 -5.574655 129.060862 -29.15463 127.008064 -179.860364 75.750576 -0.107626 171.233323 31.90642 -163.734091 -39.913077 -57.83042 35.005521 19.259821 -66.28622 97.887017 179.992818 75.749476 0.005535 -162.891021 48.678727 -12.791139 -41.636156 47.538642 -66.895521 -154.489195 74.267077 -117.457224
-23.724600000000002 68.6007 -29.500799999999998 174.612044 20.782825 -178.480259 -4.620728 -1.960536 -87.960915 8.883456 -7.945596 102.859674 -8.772721 11.608506 -120.334194 -6.436953 21.089107 129.587606 -0.00055 -0.0 0.00088 -0.000182 -0.0 0.000816 -158.466933 -30.055415 166.92069 95.560774 71.935627 -97.003869 -56.745725 -1.524037 161.281654 127.582589 -80.188118 107.93952 -178.519816 -16.064109 89.474997 161.608346 -36.022656 103.46445 2.325073 -3.868242 -1.257784 -150.748426 1.171045 109.179276 7.903807 -24.807624 -3.014679 11.290438 -24.949758 -1.53882 -145.12297 1.974996 -179.749718 -151.543032 -30.398598 -174.196744 -149.20021 25.858957 -145.261825 1.224452 -2.010001 -2.597026 150.012341 22.064912 -155.096189 73.560301 -74.844628 101.730832 -107.703809 -87.52256 -132.289503 8.060901 25.864216 -1.082056 99.39433 37.101271 -57.492241 -21.644438 -30.233047 -23.931462 152.812352 -19.873324 -121.572537 -3.899768 14.77507 6.926641 -173.122 -66.297692 -137.611942 42.518409 58.332772 -36.42232 74.840837 72.961593 -92.827748 60.485899 -82.102395 77.476552 -26.964614 80.122838 -10.148776 153.007102 26.706625 145.762719 -0.0 -0.001064 -0.000118 -7.381836 -38.686897 -11.709703 20.882044 63.968517 -161.336004 -165.541895 45.204735 -100.852919 -179.982662 75.749288 -0.011862 -159.806261 45.287858 83.951323 55.113108 12.132671 -108.088315 30.541338 -3.578765 17.765361
